<svg width="16" height="20" fill="none" xmlns="http://www.w3.org/2000/svg"><path d="M1.5 20A1.5 1.5 0 0 0 0 18.5V1a1 1 0 0 1 1-1h14a1 1 0 0 1 1 1v17.5a1.5 1.5 0 0 0-1.5 1.5h-1a1.5 1.5 0 0 0-3 0h-1a1.5 1.5 0 0 0-3 0h-1a1.5 1.5 0 0 0-3 0h-1zm4.83-7.617a4.235 4.235 0 0 0 3.086-.595l2.11 2.11a.969.969 0 0 0 1.37-1.371l-2.109-2.1a4.246 4.246 0 0 0 .614-2.99c-.297-1.793-1.745-3.27-3.547-3.557A4.318 4.318 0 0 0 2.86 8.711c.23 1.822 1.668 3.336 3.47 3.672zM4.706 8.059a2.354 2.354 0 0 1 4.706 0 2.354 2.354 0 0 1-4.706 0z" clip-rule="evenodd" fill="#FFF" fill-rule="evenodd"/></svg>